<?xml version="1.0" encoding="UTF-8" standalone="no"?>
<!DOCTYPE svg PUBLIC "-//W3C//DTD SVG 20010904//EN"
              "http://www.w3.org/TR/2001/REC-SVG-20010904/DTD/svg10.dtd">

<svg xmlns="http://www.w3.org/2000/svg"
     width="0.08in" height="0.08in"
     viewBox="0 0 24 24">
  <path id="Selection"
        fill="none" stroke="black" stroke-width="1"
        d="M 8.06,3.74
           C 11.51,2.88 16.70,2.27 19.69,4.74
             22.88,7.37 22.72,13.27 17.94,15.26
             8.33,19.28 -1.99,9.89 8.06,3.74 Z
           M 6.00,17.00
           C 6.00,17.00 12.00,17.00 12.00,17.00
             12.00,17.00 12.00,20.00 12.00,20.00
             12.00,20.00 6.00,20.00 6.00,20.00
             6.00,20.00 6.00,17.00 6.00,17.00 Z
           M 3.00,21.00
           C 3.00,21.00 7.00,21.00 7.00,21.00
             7.00,21.00 7.00,23.00 7.00,23.00
             7.00,23.00 3.00,23.00 3.00,23.00
             3.00,23.00 3.00,21.00 3.00,21.00 Z" />
</svg>
